<?xml version="1.0" encoding="UTF-8" ?>
<!DOCTYPE svg PUBLIC "-//W3C//DTD SVG 1.1//EN" "http://www.w3.org/Graphics/SVG/1.1/DTD/svg11.dtd">
<svg width="182pt" height="309pt" viewBox="0 0 353 600" version="1.1" xmlns="http://www.w3.org/2000/svg">
<g id="#ffffffff">
<path fill="#ffffff" opacity="1.00" d=" M 90.41 53.22 C 92.38 51.76 94.71 50.92 97.00 50.12 C 94.35 54.92 91.06 59.32 88.42 64.13 C 73.96 89.70 64.54 118.52 63.75 148.03 C 63.06 174.32 69.86 200.84 83.34 223.45 C 89.62 234.80 98.02 244.73 106.25 254.68 C 98.38 251.59 91.71 246.07 85.24 240.75 C 61.90 221.31 48.79 191.18 48.20 161.03 C 47.26 155.99 48.43 150.96 48.35 145.90 C 49.86 123.32 56.50 101.15 67.24 81.25 C 73.44 70.80 80.49 60.48 90.41 53.22 Z" />
<path fill="#ffffff" opacity="1.00" d=" M 264.95 49.98 C 270.96 51.57 275.49 56.05 279.74 60.34 C 287.59 68.17 293.53 77.69 298.41 87.60 C 308.32 107.95 314.27 130.39 314.62 153.08 C 315.14 169.20 312.55 185.44 306.65 200.47 C 299.66 217.90 287.89 233.40 273.00 244.82 C 267.77 248.37 262.96 252.80 256.85 254.79 C 261.33 248.68 266.77 243.33 270.95 236.99 C 288.10 213.27 298.78 184.40 298.81 154.96 C 299.58 124.57 290.44 94.54 275.95 68.03 C 272.65 61.79 268.50 56.07 264.95 49.98 Z" />
<path fill="#ffffff" opacity="1.00" d=" M 94.60 84.55 C 99.48 78.17 105.31 72.05 112.98 69.14 C 110.94 74.08 107.21 78.02 104.71 82.71 C 89.98 107.92 81.54 137.74 85.48 167.01 C 88.16 188.31 97.55 208.45 110.90 225.15 C 112.67 227.42 114.26 229.82 115.91 232.18 C 92.03 219.76 75.50 194.67 72.58 168.00 C 70.00 147.61 73.70 126.73 81.53 107.82 C 85.14 99.68 89.15 91.63 94.60 84.55 Z" />
<path fill="#ffffff" opacity="1.00" d=" M 248.94 69.08 C 255.47 71.16 260.40 76.18 264.89 81.12 C 278.77 97.74 286.61 118.74 289.91 139.97 C 290.87 145.60 290.64 151.34 290.66 157.03 C 291.20 171.77 287.20 186.49 280.28 199.45 C 275.26 208.89 267.90 216.79 259.99 223.87 C 255.97 227.02 251.98 230.42 247.09 232.13 C 254.83 221.96 262.57 211.64 267.88 199.94 C 273.14 187.98 277.07 175.21 277.67 162.10 C 280.00 135.75 272.37 109.26 259.65 86.29 C 256.50 80.29 252.27 74.97 248.94 69.08 Z" />
<path fill="#ffffff" opacity="1.00" d=" M 117.92 94.90 C 120.75 91.89 124.19 89.50 128.04 88.00 C 126.62 91.10 124.55 93.82 122.62 96.62 C 114.65 109.24 108.67 123.29 106.42 138.12 C 103.45 155.31 106.30 173.33 114.14 188.89 C 117.53 196.22 122.71 202.46 126.89 209.32 C 119.59 205.99 114.17 199.89 108.98 193.98 C 99.96 182.78 95.39 168.27 95.62 153.96 C 95.34 142.84 97.62 131.70 101.62 121.35 C 105.68 111.81 110.27 102.12 117.92 94.90 Z" />
<path fill="#ffffff" opacity="1.00" d=" M 234.01 88.28 C 242.57 91.16 248.26 98.69 253.17 105.85 C 261.93 120.27 267.50 137.06 266.84 154.06 C 267.99 176.58 255.28 199.37 235.35 209.96 C 242.99 199.88 249.94 189.09 253.64 176.89 C 256.69 166.60 258.30 155.68 257.02 144.97 C 255.47 124.19 246.05 104.95 234.01 88.28 Z" />
<path fill="#ffffff" opacity="1.00" d=" M 140.11 106.20 C 141.53 104.93 143.36 104.35 145.20 104.01 C 142.06 109.01 138.22 113.60 135.89 119.08 C 129.02 133.03 126.77 149.85 132.44 164.60 C 134.61 171.33 138.71 177.16 142.45 183.08 C 131.43 177.56 124.71 165.79 122.82 153.90 C 121.97 144.64 122.83 135.10 126.45 126.46 C 129.60 118.92 133.64 111.40 140.11 106.20 Z" />
<path fill="#ffffff" opacity="1.00" d=" M 217.12 103.98 C 221.77 104.94 224.99 108.69 227.92 112.12 C 236.62 123.61 241.42 138.31 239.98 152.74 C 239.13 161.24 235.63 169.49 229.78 175.76 C 227.27 178.87 224.27 181.66 220.47 183.09 C 223.26 178.65 226.33 174.36 228.52 169.58 C 232.80 159.71 234.65 148.57 232.69 137.92 C 231.71 130.73 228.89 123.99 225.74 117.51 C 223.32 112.72 219.82 108.60 217.12 103.98 Z" />
</g>
<g id="#235d9cff">
<path fill="#235d9c" opacity="1.00" d=" M 175.56 0.00 L 192.22 0.00 C 204.76 1.63 217.37 3.50 229.41 7.51 C 254.88 15.81 278.02 31.17 295.47 51.52 C 312.86 70.98 324.63 95.28 329.57 120.87 C 337.06 158.21 329.10 198.25 308.20 230.04 C 295.19 250.20 276.95 266.65 256.41 278.88 C 233.96 240.19 211.33 201.61 188.80 162.96 C 186.05 158.29 183.25 153.65 180.82 148.80 C 180.54 148.77 179.98 148.71 179.70 148.68 C 157.05 189.62 135.00 230.89 112.52 271.92 C 111.27 274.14 110.12 276.41 109.08 278.73 L 109.43 277.89 C 98.97 271.18 88.66 264.02 80.04 254.99 C 67.54 243.04 57.62 228.59 49.84 213.19 C 42.98 198.10 37.84 182.05 36.22 165.50 C 31.62 127.42 43.19 87.92 66.76 57.77 C 77.75 43.75 91.18 31.63 106.43 22.39 C 127.04 9.04 151.33 2.53 175.56 0.00 M 90.41 53.22 C 80.49 60.48 73.44 70.80 67.24 81.25 C 56.50 101.15 49.86 123.32 48.35 145.90 C 48.43 150.96 47.26 155.99 48.20 161.03 C 48.79 191.18 61.90 221.31 85.24 240.75 C 91.71 246.07 98.38 251.59 106.25 254.68 C 98.02 244.73 89.62 234.80 83.34 223.45 C 69.86 200.84 63.06 174.32 63.75 148.03 C 64.54 118.52 73.96 89.70 88.42 64.13 C 91.06 59.32 94.35 54.92 97.00 50.12 C 94.71 50.92 92.38 51.76 90.41 53.22 M 264.95 49.98 C 268.50 56.07 272.65 61.79 275.95 68.03 C 290.44 94.54 299.58 124.57 298.81 154.96 C 298.78 184.40 288.10 213.27 270.95 236.99 C 266.77 243.33 261.33 248.68 256.85 254.79 C 262.96 252.80 267.77 248.37 273.00 244.82 C 287.89 233.40 299.66 217.90 306.65 200.47 C 312.55 185.44 315.14 169.20 314.62 153.08 C 314.27 130.39 308.32 107.95 298.41 87.60 C 293.53 77.69 287.59 68.17 279.74 60.34 C 275.49 56.05 270.96 51.57 264.95 49.98 M 94.60 84.55 C 89.15 91.63 85.14 99.68 81.53 107.82 C 73.70 126.73 70.00 147.61 72.58 168.00 C 75.50 194.67 92.03 219.76 115.91 232.18 C 114.26 229.82 112.67 227.42 110.90 225.15 C 97.55 208.45 88.16 188.31 85.48 167.01 C 81.54 137.74 89.98 107.92 104.71 82.71 C 107.21 78.02 110.94 74.08 112.98 69.14 C 105.31 72.05 99.48 78.17 94.60 84.55 M 248.94 69.08 C 252.27 74.97 256.50 80.29 259.65 86.29 C 272.37 109.26 280.00 135.75 277.67 162.10 C 277.07 175.21 273.14 187.98 267.88 199.94 C 262.57 211.64 254.83 221.96 247.09 232.13 C 251.98 230.42 255.97 227.02 259.99 223.87 C 267.90 216.79 275.26 208.89 280.28 199.45 C 287.20 186.49 291.20 171.77 290.66 157.03 C 290.64 151.34 290.87 145.60 289.91 139.97 C 286.61 118.74 278.77 97.74 264.89 81.12 C 260.40 76.18 255.47 71.16 248.94 69.08 M 117.92 94.90 C 110.27 102.12 105.68 111.81 101.62 121.35 C 97.62 131.70 95.34 142.84 95.62 153.96 C 95.39 168.27 99.96 182.78 108.98 193.98 C 114.17 199.89 119.59 205.99 126.89 209.32 C 122.71 202.46 117.53 196.22 114.14 188.89 C 106.30 173.33 103.45 155.31 106.42 138.12 C 108.67 123.29 114.65 109.24 122.62 96.62 C 124.55 93.82 126.62 91.10 128.04 88.00 C 124.19 89.50 120.75 91.89 117.92 94.90 M 234.01 88.28 C 246.05 104.95 255.47 124.19 257.02 144.97 C 258.30 155.68 256.69 166.60 253.64 176.89 C 249.94 189.09 242.99 199.88 235.35 209.96 C 255.28 199.37 267.99 176.58 266.84 154.06 C 267.50 137.06 261.93 120.27 253.17 105.85 C 248.26 98.69 242.57 91.16 234.01 88.28 M 140.11 106.20 C 133.64 111.40 129.60 118.92 126.45 126.46 C 122.83 135.10 121.97 144.64 122.82 153.90 C 124.71 165.79 131.43 177.56 142.45 183.08 C 138.71 177.16 134.61 171.33 132.44 164.60 C 126.77 149.85 129.02 133.03 135.89 119.08 C 138.22 113.60 142.06 109.01 145.20 104.01 C 143.36 104.35 141.53 104.93 140.11 106.20 M 217.12 103.98 C 219.82 108.60 223.32 112.72 225.74 117.51 C 228.89 123.99 231.71 130.73 232.69 137.92 C 234.65 148.57 232.80 159.71 228.52 169.58 C 226.33 174.36 223.26 178.65 220.47 183.09 C 224.27 181.66 227.27 178.87 229.78 175.76 C 235.63 169.49 239.13 161.24 239.98 152.74 C 241.42 138.31 236.62 123.61 227.92 112.12 C 224.99 108.69 221.77 104.94 217.12 103.98 Z" />
</g>
<g id="#dc2b19ff">
<path fill="#dc2b19" opacity="1.00" d=" M 179.70 148.68 C 179.98 148.71 180.54 148.77 180.82 148.80 C 183.25 153.65 186.05 158.29 188.80 162.96 C 211.33 201.61 233.96 240.19 256.41 278.88 C 257.69 281.41 259.02 283.93 260.46 286.38 C 272.05 306.18 283.48 326.07 295.19 345.81 C 307.18 366.71 319.74 387.30 331.41 408.39 C 296.61 408.44 261.81 408.39 227.01 408.41 C 194.33 408.53 161.64 408.13 128.97 408.70 C 102.31 408.67 75.65 408.71 48.98 408.67 C 45.54 408.63 42.12 408.99 38.69 409.32 C 41.05 403.18 44.77 397.72 47.70 391.86 C 62.54 364.69 77.24 337.45 92.10 310.30 C 97.54 299.66 103.78 289.44 109.08 278.73 C 110.12 276.41 111.27 274.14 112.52 271.92 C 135.00 230.89 157.05 189.62 179.70 148.68 Z" />
</g>
<g id="#1f1a17ff">
<path fill="#1f1a17" opacity="1.00" d=" M 111.39 429.47 C 121.44 429.48 131.49 429.42 141.55 429.49 C 141.68 443.14 141.55 456.79 141.61 470.43 C 151.64 470.48 161.67 470.41 171.70 470.47 C 171.78 476.73 171.86 482.99 171.64 489.25 C 151.57 489.25 131.50 489.24 111.42 489.25 C 111.35 469.32 111.42 449.39 111.39 429.47 Z" />
<path fill="#1f1a17" opacity="1.00" d=" M 181.82 429.51 C 192.08 429.40 202.35 429.49 212.62 429.46 C 212.69 449.39 212.71 469.32 212.61 489.25 C 202.35 489.24 192.09 489.26 181.83 489.24 C 181.81 469.33 181.85 449.42 181.82 429.51 Z" />
<path fill="#1f1a17" opacity="1.00" d=" M 219.14 429.50 C 229.17 429.43 239.20 429.44 249.24 429.49 C 250.62 434.21 251.85 438.96 252.99 443.75 C 254.75 451.61 257.67 459.28 258.00 467.42 C 258.32 467.44 258.96 467.49 259.29 467.52 C 259.60 463.88 260.40 460.30 261.47 456.82 C 264.20 447.71 266.51 438.47 269.47 429.43 C 276.51 429.60 283.57 429.23 290.60 429.60 C 294.80 442.13 297.96 455.04 301.91 467.67 C 302.26 465.78 302.58 463.89 302.85 462.00 C 304.96 450.85 308.08 439.89 310.89 428.90 C 320.92 428.56 330.97 428.83 341.00 428.78 C 332.97 448.78 324.73 468.70 316.38 488.57 C 312.91 488.49 309.43 488.53 306.00 489.11 C 300.63 489.46 295.24 489.15 289.86 489.25 C 286.61 478.72 283.31 468.19 280.09 457.66 C 277.09 468.26 273.68 478.73 270.48 489.28 C 261.63 489.20 252.79 489.29 243.95 489.23 C 236.87 471.41 229.22 453.82 221.90 436.10 C 220.97 433.90 220.02 431.71 219.14 429.50 Z" />
<path fill="#1f1a17" opacity="1.00" d=" M 41.50 430.20 C 47.31 429.60 53.16 430.14 58.99 429.86 C 64.69 430.66 70.45 429.09 76.10 430.36 C 85.77 450.02 95.42 469.70 105.64 489.08 C 94.93 490.38 84.08 489.84 73.32 489.67 C 72.26 487.34 71.45 484.91 70.90 482.42 C 62.87 481.94 54.81 482.31 46.77 482.22 C 45.76 484.64 44.91 487.13 44.15 489.64 C 33.44 490.04 22.71 489.86 12.01 489.74 C 21.51 469.73 31.84 450.13 41.50 430.20 M 51.96 468.22 C 56.28 468.30 60.61 468.28 64.94 468.24 C 64.21 464.88 62.75 461.75 61.56 458.55 C 60.18 455.05 59.63 451.28 58.21 447.79 C 57.00 454.86 53.97 461.38 51.96 468.22 Z" />
<path fill="#1f1a17" opacity="1.00" d=" M 56.78 530.20 C 53.56 519.41 64.10 508.03 75.00 509.28 C 85.79 508.74 95.78 520.74 91.54 531.17 C 89.41 537.98 82.75 542.10 75.99 543.17 C 74.69 543.17 73.39 543.16 72.09 543.16 C 65.12 541.97 58.69 537.21 56.78 530.20 M 61.96 521.85 C 59.71 527.56 62.55 534.34 67.81 537.29 C 72.02 539.14 76.79 539.23 80.96 537.21 C 81.85 536.52 82.74 535.85 83.65 535.20 C 85.34 533.02 87.04 530.71 87.43 527.91 C 88.71 520.71 82.29 513.44 75.03 513.53 C 69.52 513.08 63.66 516.44 61.96 521.85 Z" />
<path fill="#1f1a17" opacity="1.00" d=" M 127.25 509.63 C 134.38 510.08 142.17 508.21 148.56 512.35 C 154.54 515.56 156.91 523.06 155.58 529.45 C 154.82 534.92 150.41 539.20 145.55 541.37 C 139.59 543.28 133.24 542.25 127.10 542.51 C 126.55 537.03 126.89 531.52 126.81 526.03 C 126.91 520.56 126.45 515.06 127.25 509.63 M 131.69 514.32 C 131.73 522.27 131.67 530.23 131.73 538.18 C 135.86 538.32 140.01 538.24 144.07 537.39 C 146.84 535.61 150.02 533.47 150.59 529.96 C 152.17 525.00 150.46 518.92 145.94 516.10 C 141.75 513.25 136.43 514.42 131.69 514.32 Z" />
<path fill="#1f1a17" opacity="1.00" d=" M 160.71 531.47 C 156.14 520.73 166.86 508.21 178.03 509.27 C 184.37 508.83 190.48 512.37 193.83 517.66 C 192.25 517.70 190.67 517.72 189.09 517.72 C 183.34 511.66 171.79 511.76 166.98 518.92 C 164.93 521.58 164.43 524.98 164.52 528.26 C 166.68 538.60 181.72 542.50 188.56 534.56 C 190.02 534.53 191.47 534.50 192.93 534.49 C 192.84 534.90 192.68 535.73 192.59 536.14 C 189.95 538.89 186.95 541.63 183.07 542.37 C 174.32 545.11 163.73 540.31 160.71 531.47 Z" />
<path fill="#1f1a17" opacity="1.00" d=" M 231.75 510.74 C 235.21 508.27 240.23 507.60 243.86 510.09 C 246.18 511.44 246.88 514.24 247.84 516.55 C 246.29 516.56 244.74 516.56 243.20 516.55 C 242.54 515.59 241.83 514.68 241.07 513.81 C 239.19 512.39 236.77 513.35 234.71 513.71 C 233.50 516.14 233.35 518.80 234.73 521.20 C 238.56 522.50 243.06 522.85 245.98 525.97 C 248.32 529.05 248.87 533.38 247.10 536.87 C 244.38 543.13 234.94 544.53 230.34 539.62 C 228.37 537.91 228.14 535.23 227.53 532.87 C 229.07 532.85 230.62 532.83 232.16 532.82 C 232.74 534.30 233.33 535.77 233.93 537.25 C 236.30 538.09 238.89 538.65 241.23 537.39 C 244.42 534.98 244.24 529.22 240.45 527.46 C 236.77 526.01 232.18 525.61 230.00 521.81 C 227.21 518.45 228.88 513.47 231.75 510.74 Z" />
<path fill="#1f1a17" opacity="1.00" d=" M 250.83 509.35 C 256.78 509.29 262.73 509.30 268.68 509.33 C 268.68 510.72 268.67 512.11 268.67 513.51 C 266.55 513.51 264.44 513.52 262.32 513.54 C 262.28 522.95 262.30 532.36 262.31 541.77 C 260.67 541.79 259.03 541.82 257.39 541.85 C 257.37 532.45 257.40 523.06 257.38 513.67 C 255.19 513.59 253.01 513.54 250.82 513.46 C 250.82 512.08 250.82 510.71 250.83 509.35 Z" />
<path fill="#1f1a17" opacity="1.00" d=" M 273.17 509.30 C 274.68 509.30 276.19 509.31 277.70 509.32 C 277.65 520.15 277.67 530.99 277.69 541.83 C 276.18 541.82 274.68 541.81 273.17 541.82 C 273.17 530.98 273.18 520.14 273.17 509.30 Z" />
<path fill="#1f1a17" opacity="1.00" d=" M 284.29 509.30 C 285.90 509.30 287.50 509.30 289.11 509.32 C 295.05 517.53 300.30 526.28 306.63 534.18 C 307.19 525.92 306.70 517.62 306.90 509.34 C 308.51 509.32 310.14 509.31 311.76 509.31 C 311.73 520.18 311.78 531.06 311.74 541.93 C 310.26 541.84 308.77 541.84 307.32 541.59 C 300.90 533.57 296.12 524.27 289.37 516.53 C 288.69 525.07 289.75 533.68 288.72 542.20 C 287.27 542.18 285.84 542.17 284.40 542.18 C 284.20 531.22 284.41 520.26 284.29 509.30 Z" />
<path fill="#1f1a17" opacity="1.00" d=" M 327.63 509.85 C 335.87 506.55 346.13 509.39 350.70 517.20 C 349.23 517.23 347.75 517.26 346.28 517.29 C 340.01 511.09 327.90 511.17 323.22 519.20 C 319.39 524.90 321.83 533.28 327.86 536.37 C 334.79 540.48 344.34 537.55 348.07 530.45 C 342.50 530.08 336.91 530.29 331.33 530.25 C 331.33 528.77 331.34 527.30 331.36 525.83 C 338.57 525.83 345.79 525.83 353.00 525.83 L 353.00 527.23 C 351.43 533.86 346.84 540.19 339.93 541.81 C 330.36 544.90 319.14 538.79 316.84 528.94 C 314.88 520.94 320.38 512.88 327.63 509.85 Z" />
<path fill="#1f1a17" opacity="1.00" d=" M 3.60 510.20 C 8.72 510.32 14.28 509.31 18.96 511.96 C 21.43 512.98 22.35 515.77 22.84 518.18 C 23.48 521.18 20.66 523.10 19.22 525.33 C 20.81 526.84 23.27 527.75 23.90 530.04 C 25.21 532.70 24.05 535.58 23.39 538.23 C 18.73 544.45 10.36 543.12 3.57 543.19 C 3.57 532.19 3.50 521.19 3.60 510.20 M 8.53 514.52 C 8.51 517.78 8.51 521.05 8.55 524.32 C 10.07 524.31 11.59 524.31 13.11 524.31 C 14.54 523.61 15.96 522.91 17.38 522.22 C 17.65 520.37 18.29 518.37 17.38 516.61 C 15.19 513.96 11.55 514.60 8.53 514.52 M 8.53 527.50 C 8.51 531.24 8.50 535.00 8.51 538.75 C 11.87 538.90 15.27 538.73 18.39 537.37 C 20.10 534.70 19.65 531.50 18.22 528.84 C 15.23 527.20 11.82 527.44 8.53 527.50 Z" />
<path fill="#1f1a17" opacity="1.00" d=" M 29.48 510.23 C 35.60 510.46 42.31 508.96 47.91 512.16 C 52.75 514.85 54.18 522.19 50.39 526.34 C 48.67 528.76 45.64 529.27 43.09 530.36 C 43.16 531.28 43.49 532.10 44.07 532.81 C 46.76 536.28 49.63 539.61 52.14 543.21 C 50.12 542.82 47.35 544.08 45.91 542.10 C 42.29 537.81 39.24 533.04 35.44 528.89 C 36.00 528.40 36.56 527.91 37.13 527.44 C 40.78 527.24 45.59 526.97 47.33 523.12 C 47.63 521.37 47.46 519.60 47.43 517.85 C 44.16 514.07 38.96 514.40 34.43 514.54 C 34.33 524.09 34.35 533.63 34.32 543.17 C 32.70 543.18 31.09 543.20 29.48 543.22 C 29.42 532.23 29.44 521.23 29.48 510.23 Z" />
<path fill="#1f1a17" opacity="1.00" d=" M 105.76 509.66 C 107.23 509.65 108.71 509.64 110.19 509.65 C 114.89 520.54 119.43 531.50 123.98 542.45 C 122.31 542.47 120.64 542.48 118.97 542.48 C 117.69 539.41 117.04 535.79 114.88 533.27 C 110.62 532.24 106.00 532.97 101.60 532.89 C 99.00 535.25 98.57 539.35 96.94 542.44 C 95.34 542.46 93.73 542.47 92.13 542.47 C 96.71 531.55 101.14 520.57 105.76 509.66 M 102.88 528.50 C 106.30 528.55 109.71 528.56 113.13 528.49 C 111.75 524.22 110.17 520.00 108.23 515.95 C 105.53 519.63 104.37 524.22 102.88 528.50 Z" />
<path fill="#1f1a17" opacity="1.00" d=" M 208.01 509.70 C 209.52 509.67 211.03 509.65 212.54 509.62 C 217.36 520.47 221.66 531.53 226.49 542.37 C 224.86 542.44 223.23 542.51 221.60 542.58 C 220.17 539.61 219.35 536.36 217.68 533.52 C 213.31 532.02 208.36 533.07 203.76 532.87 C 201.51 535.62 200.90 539.41 199.24 542.54 C 197.65 542.50 196.06 542.47 194.47 542.44 C 199.11 531.58 203.63 520.67 208.01 509.70 M 209.85 516.32 C 208.28 520.36 206.58 524.35 205.20 528.47 C 208.72 528.57 212.25 528.55 215.78 528.50 C 214.23 524.52 212.57 520.58 211.07 516.59 C 210.77 516.52 210.16 516.39 209.85 516.32 Z" />
<path fill="#1f1a17" opacity="1.00" d=" M 157.88 565.86 C 163.38 564.73 169.67 564.97 174.21 568.68 C 178.04 571.24 180.27 575.39 181.40 579.76 C 181.56 584.74 180.33 590.04 176.55 593.55 C 171.19 599.38 162.12 600.32 155.04 597.37 C 148.84 594.18 144.28 587.25 145.36 580.13 C 146.03 573.36 151.64 567.92 157.88 565.86 M 152.71 574.45 C 148.33 580.02 149.73 589.47 156.21 592.83 C 160.41 595.48 165.65 595.20 170.07 593.25 C 172.17 591.44 174.36 589.53 175.49 586.93 C 178.03 581.50 175.55 574.67 170.54 571.63 C 165.04 567.94 156.81 569.24 152.71 574.45 Z" />
<path fill="#1f1a17" opacity="1.00" d=" M 262.33 565.38 C 263.82 565.36 265.33 565.35 266.83 565.34 C 266.46 576.35 267.51 587.36 266.63 598.34 C 265.20 598.17 263.76 598.01 262.33 597.84 C 262.34 587.02 262.33 576.20 262.33 565.38 Z" />
<path fill="#1f1a17" opacity="1.00" d=" M 272.71 576.44 C 275.55 568.26 284.62 563.55 293.03 564.69 C 299.51 566.07 305.47 570.63 307.43 577.10 C 308.03 580.91 308.22 585.08 306.32 588.58 C 302.58 596.63 292.35 600.52 284.06 597.71 C 275.57 595.14 269.25 585.09 272.71 576.44 M 277.30 585.10 C 278.82 591.56 285.86 594.87 292.07 594.35 C 294.24 593.45 296.61 592.86 298.45 591.32 C 300.95 589.27 302.27 586.20 303.26 583.21 C 303.25 582.02 303.26 580.85 303.29 579.68 C 301.55 573.84 296.47 568.64 289.99 569.11 C 281.75 568.37 274.54 577.21 277.30 585.10 Z" />
<path fill="#1f1a17" opacity="1.00" d=" M 313.44 565.36 C 315.01 565.36 316.58 565.37 318.16 565.39 C 324.02 573.70 329.69 582.15 335.56 590.45 C 336.10 582.14 335.72 573.81 335.80 565.49 C 337.44 565.41 339.10 565.36 340.76 565.31 C 340.68 576.33 340.93 587.35 340.62 598.36 C 335.98 599.33 334.28 594.70 332.07 591.71 C 328.13 585.62 323.73 579.85 319.98 573.63 C 319.58 573.51 318.78 573.27 318.38 573.15 C 318.36 581.36 318.35 589.58 318.38 597.80 C 316.73 597.88 315.09 597.93 313.45 597.99 C 313.44 587.11 313.45 576.24 313.44 565.36 Z" />
<path fill="#1f1a17" opacity="1.00" d=" M 13.21 584.11 C 12.05 573.88 22.10 564.99 31.97 565.62 C 38.14 565.64 43.84 569.20 47.19 574.28 C 46.10 574.30 43.92 574.35 42.83 574.37 C 39.51 571.62 35.46 569.56 31.02 570.13 C 22.94 569.57 16.16 578.19 18.43 585.92 C 20.98 595.66 35.30 598.78 41.93 591.28 C 43.18 591.31 45.68 591.39 46.92 591.42 C 43.64 595.73 39.05 599.05 33.63 600.00 L 28.70 600.00 C 21.11 598.26 13.77 592.32 13.21 584.11 Z" />
<path fill="#1f1a17" opacity="1.00" d=" M 51.05 584.70 C 49.49 574.89 58.50 566.03 67.95 565.61 C 74.42 565.11 80.78 568.63 84.44 573.87 C 88.48 579.84 87.58 588.44 82.68 593.65 C 79.66 597.07 75.28 598.80 70.98 600.00 L 66.49 600.00 C 59.08 598.30 51.91 592.66 51.05 584.70 M 62.46 571.71 C 57.02 574.26 54.36 581.27 56.52 586.84 C 58.90 594.28 68.77 597.75 75.39 593.74 C 80.30 591.38 82.33 585.89 82.32 580.75 C 80.72 575.92 77.29 571.36 72.04 570.36 C 68.82 570.09 65.31 569.88 62.46 571.71 Z" />
<path fill="#1f1a17" opacity="1.00" d=" M 92.49 598.59 C 92.50 587.61 92.47 576.64 92.51 565.66 C 99.16 566.02 106.69 564.19 112.40 568.60 C 115.59 571.71 117.08 577.29 114.04 581.03 C 112.14 584.12 108.61 585.21 105.29 585.96 C 108.40 590.28 112.07 594.18 115.10 598.56 C 113.25 598.53 111.38 598.71 109.55 598.37 C 105.25 593.64 102.22 587.81 97.44 583.51 C 97.09 588.51 97.30 593.54 97.26 598.55 C 95.67 598.56 94.08 598.57 92.49 598.59 M 97.35 570.28 C 97.35 574.45 97.34 578.63 97.35 582.80 C 101.54 582.85 106.04 583.03 109.57 580.39 C 110.78 577.72 111.34 574.29 109.08 571.99 C 105.79 569.37 101.25 570.46 97.35 570.28 Z" />
<path fill="#1f1a17" opacity="1.00" d=" M 120.80 573.04 C 120.77 570.56 120.94 568.09 121.21 565.63 C 126.88 566.16 133.31 564.23 138.31 567.77 C 143.41 571.44 142.97 580.34 137.30 583.26 C 133.90 585.55 129.67 585.25 125.78 585.28 C 125.77 589.71 125.77 594.14 125.78 598.57 C 124.20 598.56 122.61 598.56 121.03 598.56 C 120.88 596.37 120.83 594.18 120.81 592.00 C 120.85 585.68 120.85 579.36 120.80 573.04 M 125.79 570.35 C 125.80 573.77 125.80 577.19 125.80 580.62 C 129.06 580.49 132.77 581.38 135.58 579.28 C 136.86 578.22 136.93 576.42 137.44 574.96 C 136.96 573.93 136.49 572.90 136.04 571.87 C 133.05 569.64 129.26 570.27 125.79 570.35 Z" />
<path fill="#1f1a17" opacity="1.00" d=" M 186.77 565.68 C 192.61 566.09 198.92 564.44 204.37 567.22 C 210.07 569.50 211.82 578.01 207.35 582.29 C 205.58 584.43 202.76 584.95 200.29 585.85 C 199.76 586.97 201.01 587.69 201.51 588.54 C 203.98 591.68 206.55 594.73 209.32 597.61 C 210.97 598.30 211.57 596.11 212.18 595.04 C 216.24 585.23 220.17 575.36 224.43 565.64 C 225.47 565.63 227.56 565.62 228.60 565.61 C 233.57 576.44 237.81 587.58 242.62 598.48 C 240.96 598.53 239.31 598.58 237.66 598.63 C 236.44 595.53 235.11 592.48 234.01 589.34 C 229.11 589.04 224.20 589.15 219.30 589.23 C 218.06 592.37 216.78 595.49 215.33 598.54 C 211.51 598.65 207.69 598.79 203.88 598.54 C 199.77 593.60 196.54 587.84 191.69 583.59 C 191.40 588.58 191.58 593.59 191.54 598.60 C 189.94 598.57 188.35 598.55 186.76 598.53 C 186.78 587.58 186.76 576.63 186.77 565.68 M 191.67 570.25 C 191.63 574.41 191.64 578.57 191.62 582.74 C 196.01 582.96 200.73 583.00 204.30 580.03 C 204.82 577.63 204.87 575.18 204.41 572.78 C 201.01 569.40 195.99 570.35 191.67 570.25 M 225.97 572.53 C 224.40 576.53 222.79 580.51 221.26 584.52 C 224.78 584.59 228.31 584.61 231.83 584.52 C 230.36 580.46 228.69 576.49 227.19 572.44 C 226.88 572.47 226.27 572.51 225.97 572.53 Z" />
<path fill="#1f1a17" opacity="1.00" d=" M 240.14 565.68 C 246.03 565.64 251.92 565.70 257.81 565.63 C 257.77 567.20 257.72 568.77 257.65 570.35 C 256.73 570.21 254.89 569.93 253.98 569.79 C 253.35 569.95 252.08 570.27 251.45 570.43 C 251.49 579.80 251.43 589.18 251.48 598.56 C 249.84 598.56 248.20 598.56 246.57 598.57 C 246.57 589.11 246.60 579.65 246.56 570.19 C 244.49 570.17 242.42 570.17 240.35 570.19 C 240.26 568.68 240.19 567.17 240.14 565.68 Z" />
</g>
</svg>
