<?xml version="1.0" encoding="UTF-8" standalone="no"?>
<svg
   height="260"
   viewBox="0 0 10.004396 9.9358089"
   width="260"
   version="1.1"
   id="svg27"
   inkscape:version="1.1.2 (b8e25be833, 2022-02-05)"
   xmlns:inkscape="http://www.inkscape.org/namespaces/inkscape"
   xmlns:sodipodi="http://sodipodi.sourceforge.net/DTD/sodipodi-0.dtd"
   xmlns="http://www.w3.org/2000/svg"
   xmlns:svg="http://www.w3.org/2000/svg">
  <defs
     id="defs31" />
  <clipPath
     id="a">
    <path
       d="M 332.977,317.146 H 374.1 v 27.482 h -41.123 z"
       id="path2" />
  </clipPath>
  <g
     clip-path="url(#a)"
     transform="matrix(0.35277777,0,0,-0.35277777,-117.33459,121.7071)"
     id="g25">
    <path
       d="m 349.7688,332.9743 c -0.038,0.053 -0.081,0.098 -0.13,0.139 -0.048,0.039 -0.103,0.073 -0.162,0.099 -0.059,0.028 -0.125,0.048 -0.195,0.061 -0.071,0.014 -0.147,0.02 -0.229,0.02 -0.082,0 -0.159,-0.006 -0.234,-0.02 -0.073,-0.013 -0.144,-0.034 -0.21,-0.06 -0.066,-0.027 -0.13,-0.061 -0.192,-0.101 -0.061,-0.04 -0.12,-0.087 -0.179,-0.14 -0.106,-0.096 -0.196,-0.207 -0.274,-0.333 -0.077,-0.126 -0.143,-0.265 -0.199,-0.418 -0.056,-0.151 -0.104,-0.316 -0.147,-0.49 -0.042,-0.175 -0.08,-0.359 -0.117,-0.554 -0.038,-0.191 -0.072,-0.377 -0.098,-0.554 -0.025,-0.175 -0.042,-0.343 -0.046,-0.498 -0.004,-0.155 0.005,-0.297 0.031,-0.425 0.026,-0.127 0.07,-0.24 0.134,-0.338 0.04,-0.052 0.082,-0.1 0.131,-0.14 0.048,-0.041 0.102,-0.075 0.16,-0.103 0.06,-0.026 0.126,-0.046 0.196,-0.059 0.071,-0.014 0.149,-0.02 0.232,-0.019 0.083,0.002 0.162,0.01 0.237,0.025 0.076,0.014 0.148,0.038 0.217,0.065 0.069,0.029 0.135,0.064 0.198,0.107 0.063,0.042 0.124,0.09 0.182,0.145 0.106,0.098 0.195,0.213 0.271,0.341 0.077,0.129 0.14,0.271 0.196,0.426 0.03,0.083 0.057,0.17 0.083,0.26 0.022,0.076 0.042,0.154 0.061,0.234 0.043,0.174 0.08,0.358 0.117,0.55 0.017,0.089 0.033,0.177 0.047,0.263 0.018,0.098 0.033,0.193 0.046,0.286 0.024,0.173 0.039,0.335 0.042,0.486 0.004,0.15 -0.006,0.29 -0.033,0.413 -0.027,0.125 -0.07,0.236 -0.136,0.332"
       fill="#231f20"
       id="path5"
       style="fill:#c5093d;fill-opacity:1" />
    <path
       d="m 343.6745,332.9743 c -0.038,0.053 -0.081,0.098 -0.129,0.139 -0.048,0.039 -0.104,0.073 -0.163,0.099 -0.06,0.027 -0.125,0.048 -0.196,0.062 -0.07,0.013 -0.146,0.019 -0.228,0.019 -0.082,0 -0.16,-0.006 -0.235,-0.02 -0.072,-0.013 -0.143,-0.033 -0.209,-0.06 -0.067,-0.028 -0.13,-0.061 -0.191,-0.101 -0.062,-0.04 -0.121,-0.087 -0.18,-0.14 -0.106,-0.096 -0.197,-0.207 -0.275,-0.333 -0.077,-0.126 -0.143,-0.265 -0.198,-0.418 -0.056,-0.151 -0.104,-0.316 -0.147,-0.491 -0.042,-0.174 -0.08,-0.358 -0.117,-0.553 -0.038,-0.191 -0.072,-0.377 -0.098,-0.553 -0.025,-0.177 -0.042,-0.344 -0.046,-0.499 -0.005,-0.155 0.004,-0.297 0.03,-0.424 0.027,-0.128 0.07,-0.242 0.136,-0.339 0.038,-0.052 0.081,-0.1 0.13,-0.14 0.047,-0.041 0.102,-0.075 0.161,-0.103 0.059,-0.026 0.125,-0.046 0.195,-0.06 0.071,-0.014 0.149,-0.019 0.232,-0.019 0.082,0.002 0.162,0.011 0.238,0.025 0.074,0.015 0.147,0.038 0.216,0.066 0.069,0.029 0.135,0.064 0.198,0.107 0.063,0.042 0.124,0.09 0.181,0.145 0.106,0.097 0.195,0.212 0.272,0.341 0.076,0.129 0.14,0.271 0.196,0.425 0.031,0.085 0.058,0.173 0.084,0.265 0.021,0.074 0.042,0.151 0.06,0.23 0.042,0.174 0.08,0.358 0.117,0.549 0.017,0.09 0.033,0.177 0.047,0.262 0.017,0.098 0.033,0.194 0.045,0.288 0.025,0.173 0.04,0.336 0.043,0.486 0.004,0.15 -0.006,0.29 -0.034,0.413 -0.025,0.125 -0.07,0.236 -0.135,0.332"
       fill="#231f20"
       id="path7"
       style="fill:#c5093d;fill-opacity:1" />
    <path
       d="m 355.8135,332.9875 c -0.038,0.054 -0.082,0.1 -0.131,0.141 -0.049,0.04 -0.104,0.074 -0.164,0.101 -0.06,0.027 -0.126,0.047 -0.197,0.061 -0.072,0.014 -0.148,0.02 -0.231,0.021 -0.083,-0.001 -0.162,-0.007 -0.237,-0.021 -0.074,-0.014 -0.145,-0.034 -0.212,-0.061 -0.067,-0.028 -0.131,-0.061 -0.194,-0.102 -0.061,-0.04 -0.121,-0.088 -0.18,-0.141 -0.108,-0.097 -0.199,-0.21 -0.277,-0.337 -0.079,-0.127 -0.144,-0.268 -0.201,-0.422 -0.057,-0.152 -0.105,-0.319 -0.148,-0.495 -0.043,-0.176 -0.082,-0.362 -0.119,-0.559 -0.038,-0.193 -0.073,-0.381 -0.098,-0.56 -0.026,-0.177 -0.043,-0.346 -0.047,-0.503 -0.005,-0.156 0.005,-0.299 0.031,-0.429 0.027,-0.128 0.071,-0.243 0.136,-0.341 0.039,-0.053 0.083,-0.101 0.132,-0.141 0.048,-0.043 0.102,-0.077 0.162,-0.104 0.06,-0.028 0.126,-0.048 0.197,-0.062 0.072,-0.013 0.151,-0.018 0.235,-0.018 0.083,0.002 0.163,0.01 0.239,0.026 0.076,0.014 0.149,0.037 0.219,0.065 0.069,0.029 0.137,0.065 0.2,0.108 0.064,0.043 0.125,0.091 0.183,0.147 0.107,0.099 0.198,0.214 0.275,0.343 0.077,0.131 0.141,0.275 0.198,0.431 0.03,0.084 0.058,0.172 0.083,0.263 0.033,0.102 0.062,0.206 0.087,0.317 0.037,0.155 0.069,0.318 0.099,0.488 0.015,0.087 0.03,0.17 0.042,0.253 0.018,0.098 0.033,0.195 0.046,0.288 0.024,0.175 0.04,0.339 0.042,0.491 0.004,0.152 -0.006,0.293 -0.033,0.418 -0.027,0.126 -0.071,0.238 -0.137,0.334"
       fill="#231f20"
       id="path9"
       style="fill:#c5093d;fill-opacity:1" />
    <path
       d="m 349.6859,330.6444 c -0.019,-0.08 -0.04,-0.158 -0.061,-0.234 0.032,0.1 0.061,0.204 0.086,0.314 0.036,0.153 0.068,0.314 0.098,0.483 0.015,0.085 0.029,0.169 0.041,0.25 -0.015,-0.086 -0.03,-0.174 -0.048,-0.263 -0.036,-0.192 -0.074,-0.376 -0.116,-0.55"
       fill="#c6193e"
       id="path11"
       style="fill:#c5093d;fill-opacity:1" />
    <path
       d="m 343.5919,330.6444 c -0.019,-0.079 -0.039,-0.156 -0.061,-0.23 0.032,0.099 0.061,0.201 0.086,0.31 0.036,0.152 0.067,0.314 0.097,0.483 0.015,0.085 0.029,0.168 0.042,0.248 -0.015,-0.085 -0.031,-0.172 -0.047,-0.262 -0.037,-0.191 -0.075,-0.375 -0.117,-0.549"
       fill="#c6193e"
       id="path13"
       style="fill:#c5093d;fill-opacity:1" />
    <g
       fill="#231f20"
       id="g23"
       transform="translate(-13.5561)"
       style="fill:#c5093d;fill-opacity:1">
      <path
         d="m 0,0 c -0.137,0 -0.227,-0.071 -0.27,-0.167 -0.025,-0.06 -0.034,-0.104 -0.037,-0.175 H 0.308 C 0.304,-0.271 0.295,-0.227 0.27,-0.167 0.227,-0.071 0.137,0 0,0"
         transform="translate(357.2016,325.6753)"
         id="path15"
         style="fill:#c5093d;fill-opacity:1" />
      <path
         d="m 0,0 c -0.081,0 -0.14,-0.025 -0.186,-0.071 -0.084,-0.085 -0.093,-0.224 -0.093,-0.392 0,-0.167 0.009,-0.31 0.093,-0.395 0.046,-0.046 0.105,-0.071 0.186,-0.071 0.081,0 0.143,0.025 0.19,0.071 0.083,0.085 0.093,0.228 0.093,0.395 0,0.168 -0.01,0.307 -0.093,0.392 C 0.143,-0.025 0.081,0 0,0"
         transform="translate(363.6012,325.6472)"
         id="path17"
         style="fill:#c5093d;fill-opacity:1" />
      <path
         d="M 0,0 -0.398,0.674 -0.568,0.482 V 0 h -0.404 v 2.212 h 0.404 V 0.956 l 0.537,0.662 H 0.457 L -0.122,0.966 0.5,0 Z m -1.902,1.177 c -0.063,0.062 -0.115,0.097 -0.215,0.097 -0.124,0 -0.26,-0.094 -0.26,-0.299 V 0 h -0.404 v 1.618 h 0.394 V 1.463 c 0.078,0.093 0.233,0.174 0.407,0.174 0.159,0 0.27,-0.04 0.382,-0.152 z M -2.956,6.034 C -3.021,5.789 -3.096,5.566 -3.186,5.36 -3.276,5.155 -3.382,4.967 -3.508,4.792 -3.634,4.616 -3.781,4.451 -3.954,4.295 -4.073,4.187 -4.208,4.082 -4.359,3.984 -4.508,3.887 -4.674,3.796 -4.856,3.72 -5.038,3.643 -5.234,3.58 -5.447,3.533 -5.66,3.488 -5.888,3.46 -6.131,3.458 -6.375,3.454 -6.595,3.475 -6.793,3.515 -6.991,3.555 -7.168,3.614 -7.323,3.688 -7.478,3.76 -7.615,3.846 -7.731,3.942 -7.848,4.038 -7.947,4.143 -8.029,4.249 -8.15,4.405 -8.24,4.567 -8.306,4.745 -8.371,4.922 -8.41,5.112 -8.428,5.32 c -0.018,0.208 -0.014,0.434 0.009,0.682 0.022,0.25 0.063,0.52 0.117,0.82 0.055,0.297 0.116,0.566 0.187,0.811 0.069,0.246 0.149,0.468 0.244,0.673 0.095,0.204 0.204,0.39 0.335,0.564 0.131,0.172 0.28,0.333 0.456,0.485 0.12,0.104 0.255,0.206 0.405,0.299 0.151,0.094 0.315,0.177 0.494,0.249 0.179,0.071 0.374,0.129 0.583,0.169 0.209,0.04 0.433,0.062 0.671,0.059 0.236,-10e-4 0.451,-0.026 0.643,-0.07 0.193,-0.041 0.365,-0.103 0.517,-0.176 0.152,-0.072 0.285,-0.159 0.399,-0.253 0.114,-0.094 0.21,-0.194 0.288,-0.299 0.118,-0.151 0.208,-0.31 0.272,-0.481 0.066,-0.173 0.106,-0.355 0.125,-0.557 0.02,-0.2 0.019,-0.419 0,-0.66 C -2.702,7.393 -2.739,7.13 -2.789,6.838 -2.838,6.544 -2.892,6.278 -2.956,6.034 M -3.652,0.18 c -0.1,-0.105 -0.265,-0.199 -0.503,-0.199 -0.24,0 -0.401,0.094 -0.5,0.199 -0.146,0.152 -0.184,0.336 -0.184,0.631 0,0.292 0.038,0.476 0.184,0.627 0.099,0.106 0.26,0.199 0.5,0.199 0.238,0 0.403,-0.093 0.503,-0.199 0.146,-0.151 0.183,-0.335 0.183,-0.627 0,-0.295 -0.037,-0.479 -0.183,-0.631 M -5.905,0 H -6.237 L -6.576,1.015 -6.914,0 h -0.333 l -0.498,1.618 h 0.43 l 0.26,-1 0.33,1 h 0.295 l 0.332,-1 0.261,1 h 0.426 z M -8.386,1.264 H -8.672 V 0.488 c 0,-0.093 0.044,-0.146 0.14,-0.146 h 0.146 V 0 h -0.221 c -0.328,0 -0.468,0.233 -0.468,0.463 v 0.801 h -0.171 v 0.308 h 0.171 V 2.05 h 0.403 V 1.572 h 0.286 z M -9.602,4.792 C -9.728,4.616 -9.875,4.45 -10.048,4.295 -10.168,4.186 -10.302,4.082 -10.453,3.984 -10.603,3.887 -10.769,3.796 -10.95,3.72 -11.132,3.643 -11.329,3.58 -11.541,3.533 -11.754,3.489 -11.983,3.46 -12.226,3.457 c -0.243,-0.003 -0.464,0.018 -0.661,0.058 -0.198,0.04 -0.375,0.099 -0.53,0.173 -0.156,0.072 -0.291,0.158 -0.408,0.254 -0.117,0.095 -0.216,0.2 -0.298,0.307 -0.12,0.155 -0.211,0.319 -0.277,0.496 -0.065,0.177 -0.104,0.367 -0.122,0.575 -0.017,0.208 -0.014,0.434 0.009,0.682 0.023,0.25 0.063,0.52 0.118,0.82 0.055,0.297 0.116,0.566 0.186,0.811 0.07,0.246 0.149,0.468 0.244,0.673 0.095,0.204 0.205,0.39 0.335,0.564 0.13,0.173 0.28,0.333 0.455,0.485 0.12,0.103 0.256,0.206 0.406,0.299 0.15,0.094 0.314,0.177 0.494,0.249 0.179,0.071 0.374,0.129 0.583,0.17 0.209,0.039 0.432,0.061 0.67,0.057 0.236,0 0.451,-0.025 0.643,-0.069 0.194,-0.042 0.365,-0.103 0.518,-0.176 0.152,-0.073 0.284,-0.16 0.399,-0.253 0.113,-0.094 0.209,-0.194 0.288,-0.299 0.117,-0.151 0.207,-0.31 0.272,-0.481 0.065,-0.173 0.106,-0.356 0.125,-0.557 0.02,-0.2 0.018,-0.419 -0.001,-0.66 C -8.796,7.393 -8.833,7.13 -8.884,6.838 -8.932,6.544 -8.987,6.277 -9.051,6.034 -9.115,5.789 -9.19,5.566 -9.281,5.36 -9.37,5.155 -9.476,4.967 -9.602,4.792 M -9.85,0.684 h -1.012 c 0,-0.209 0.127,-0.361 0.354,-0.361 0.177,0 0.264,0.05 0.366,0.152 l 0.246,-0.239 c -0.165,-0.164 -0.323,-0.255 -0.615,-0.255 -0.382,0 -0.749,0.174 -0.749,0.83 0,0.528 0.286,0.826 0.705,0.826 0.45,0 0.705,-0.329 0.705,-0.773 z M -11.979,0 h -0.403 v 0.979 c 0,0.22 -0.14,0.295 -0.267,0.295 -0.128,0 -0.271,-0.075 -0.271,-0.295 V 0 h -0.404 v 1.618 h 0.395 V 1.469 c 0.106,0.112 0.255,0.168 0.404,0.168 0.161,0 0.292,-0.053 0.382,-0.143 0.13,-0.13 0.164,-0.283 0.164,-0.459 z M 5.212,11.974 C 5.135,11.96 5.061,11.938 4.992,11.91 4.922,11.881 4.855,11.846 4.79,11.804 4.726,11.762 4.663,11.712 4.603,11.656 4.49,11.556 4.396,11.438 4.314,11.306 4.233,11.174 4.165,11.027 4.106,10.866 4.047,10.707 3.998,10.534 3.952,10.35 3.909,10.167 3.869,9.973 3.83,9.769 3.806,9.647 3.608,8.481 3.449,7.535 c 0,0 -0.216,-1.228 -0.216,-1.228 0,0 -0.005,-0.031 -0.012,-0.077 C 3.217,6.208 3.212,6.184 3.208,6.162 3.191,6.063 3.18,5.969 3.171,5.877 3.166,5.836 3.162,5.799 3.161,5.773 3.159,5.736 3.155,5.664 3.155,5.664 3.156,5.659 3.158,5.654 3.158,5.648 3.158,5.552 3.161,5.461 3.176,5.377 3.196,5.269 3.231,5.171 3.284,5.087 3.316,5.041 3.351,5.001 3.392,4.965 3.431,4.929 3.477,4.9 3.526,4.875 3.576,4.85 3.631,4.833 3.691,4.82 3.7,4.818 3.711,4.818 3.721,4.815 L 3.287,3.423 C 3.242,3.422 3.197,3.42 3.151,3.421 2.988,3.427 2.837,3.446 2.699,3.48 2.563,3.512 2.437,3.557 2.322,3.616 2.301,3.628 2.281,3.641 2.261,3.654 2.18,3.695 2.103,3.739 2.033,3.79 1.927,3.867 1.834,3.955 1.758,4.05 1.635,4.206 1.549,4.388 1.493,4.585 1.423,4.462 1.338,4.34 1.236,4.222 1.191,4.171 1.146,4.124 1.098,4.079 L 1.093,4.071 C 1.083,4.063 1.074,4.055 1.065,4.047 1.041,4.025 1.018,4.004 0.994,3.984 0.994,3.984 0.993,3.983 0.992,3.982 0.967,3.961 0.942,3.941 0.917,3.921 0.842,3.862 0.769,3.808 0.694,3.761 0.562,3.676 0.428,3.609 0.289,3.557 0.151,3.507 0.007,3.471 -0.143,3.451 -0.295,3.43 -0.453,3.423 -0.624,3.429 -0.781,3.435 -0.932,3.454 -1.076,3.486 -1.219,3.52 -1.356,3.565 -1.48,3.622 c -0.126,0.057 -0.24,0.126 -0.341,0.204 -0.1,0.077 -0.188,0.165 -0.259,0.261 -0.129,0.173 -0.212,0.376 -0.26,0.598 -0.049,0.22 -0.063,0.46 -0.056,0.709 0.009,0.249 0.04,0.506 0.081,0.764 0.042,0.257 0.094,0.513 0.146,0.761 0.051,0.245 0.105,0.502 0.169,0.755 0.064,0.253 0.138,0.503 0.23,0.743 0.092,0.24 0.201,0.468 0.336,0.673 0.134,0.206 0.295,0.391 0.488,0.543 0.106,0.086 0.225,0.161 0.351,0.228 0.128,0.065 0.263,0.12 0.404,0.162 0.141,0.044 0.289,0.075 0.439,0.094 0.15,0.018 0.303,0.023 0.457,0.014 C 0.864,10.122 1.013,10.103 1.15,10.071 1.287,10.04 1.413,9.995 1.53,9.937 1.645,9.88 1.751,9.806 1.847,9.718 1.933,9.638 2.01,9.544 2.081,9.438 c 0.013,0.092 0.026,0.184 0.043,0.28 0.044,0.239 0.099,0.491 0.16,0.751 0.06,0.263 0.122,0.513 0.187,0.748 0.068,0.235 0.141,0.459 0.225,0.662 0.029,0.07 0.06,0.137 0.091,0.204 0.009,0.018 0.022,0.046 0.041,0.083 0.003,0.005 0.006,0.012 0.009,0.017 0.012,0.023 0.026,0.048 0.042,0.076 0.035,0.062 0.071,0.122 0.109,0.18 0.07,0.106 0.148,0.202 0.233,0.291 0.273,0.301 0.679,0.611 1.246,0.713 -2.38,4.067 -6.792,6.8 -11.845,6.805 -7.585,0.008 -13.741,-6.134 -13.748,-13.72 -0.002,-2.206 0.516,-4.289 1.438,-6.137 0.274,0.124 0.508,0.329 0.673,0.597 l 0.009,0.013 c 0.004,0.006 0.009,0.013 0.013,0.02 0.08,0.125 0.146,0.262 0.201,0.415 0.052,0.142 0.098,0.302 0.141,0.491 0.006,0.032 1.048,5.702 1.111,6.041 l -0.91,-0.001 0.447,1.511 0.713,0.003 0.075,0.393 c 0.009,0.054 0.017,0.107 0.027,0.162 l 0.022,0.127 c 0.042,0.241 0.091,0.517 0.139,0.71 0.038,0.162 0.076,0.295 0.118,0.418 0.059,0.185 0.121,0.349 0.188,0.499 0.107,0.236 0.228,0.443 0.367,0.632 0.148,0.201 0.312,0.38 0.503,0.549 0.138,0.121 0.289,0.235 0.449,0.337 0.17,0.11 0.355,0.205 0.549,0.286 0.211,0.085 0.43,0.151 0.649,0.195 0.241,0.049 0.49,0.074 0.74,0.074 h 0.031 c 0.248,0 0.482,-0.024 0.696,-0.07 0.085,-0.017 0.164,-0.041 0.24,-0.065 l 0.013,-0.003 -0.498,-1.598 -0.021,0.012 c -0.01,0.006 -0.02,0.011 -0.031,0.016 -0.075,0.036 -0.159,0.064 -0.247,0.082 -0.093,0.019 -0.193,0.03 -0.298,0.03 h -0.01 c -0.11,0 -0.218,-0.011 -0.321,-0.032 -0.092,-0.019 -0.181,-0.045 -0.274,-0.082 l -0.012,-0.004 c -0.005,-0.002 -0.01,-0.003 -0.015,-0.005 -0.069,-0.026 -0.135,-0.059 -0.203,-0.099 -0.065,-0.041 -0.128,-0.087 -0.187,-0.138 -0.108,-0.091 -0.2,-0.198 -0.283,-0.326 -0.078,-0.123 -0.142,-0.256 -0.197,-0.407 -0.05,-0.138 -0.095,-0.294 -0.138,-0.481 -0.005,-0.022 -0.029,-0.16 -0.051,-0.282 -0.017,-0.1 -0.033,-0.192 -0.037,-0.21 l -0.102,-0.721 1.089,0.003 -0.449,-1.518 -0.89,0.005 -0.822,-4.57 -0.213,-1.11 c -0.05,-0.263 -0.093,-0.483 -0.155,-0.712 -0.08,-0.29 -0.168,-0.541 -0.27,-0.77 -0.108,-0.238 -0.231,-0.449 -0.375,-0.645 -0.149,-0.203 -0.317,-0.386 -0.512,-0.56 -0.144,-0.126 -0.298,-0.241 -0.459,-0.344 -0.138,-0.089 -0.285,-0.168 -0.439,-0.237 2.449,-3.754 6.682,-6.236 11.499,-6.242 C 0.179,-7.227 6.334,-1.086 6.342,6.5 6.343,8.446 5.94,10.297 5.212,11.974"
         id="path19"
         transform="translate(367.7565,324.3735)"
         style="fill:#c5093d;fill-opacity:1" />
    </g>
  </g>
</svg>
