<?xml version="1.0" standalone="yes"?>
<svg xmlns="http://www.w3.org/2000/svg" version="1.1" width="320" height="320">
  <rect x="0" y="0" width="320" height="320" style="fill:transparent;shape-rendering:crispEdges;"/>
  <path x="0" y="0" style="fill:#07090e;shape-rendering:crispEdges;" d="M10.32,10.32 V20.65 H20.65 V10.32 H10.32 Z M20.65,10.32 V20.65 H30.97 V10.32 H20.65 Z M30.97,10.32 V20.65 H41.29 V10.32 H30.97 Z M41.29,10.32 V20.65 H51.61 V10.32 H41.29 Z M51.61,10.32 V20.65 H61.94 V10.32 H51.61 Z M61.94,10.32 V20.65 H72.26 V10.32 H61.94 Z M72.26,10.32 V20.65 H82.58 V10.32 H72.26 Z M92.90,10.32 V20.65 H103.23 V10.32 H92.90 Z M123.87,10.32 V20.65 H134.19 V10.32 H123.87 Z M144.52,10.32 V20.65 H154.84 V10.32 H144.52 Z M175.48,10.32 V20.65 H185.81 V10.32 H175.48 Z M196.13,10.32 V20.65 H206.45 V10.32 H196.13 Z M216.77,10.32 V20.65 H227.10 V10.32 H216.77 Z M237.42,10.32 V20.65 H247.74 V10.32 H237.42 Z M247.74,10.32 V20.65 H258.06 V10.32 H247.74 Z M258.06,10.32 V20.65 H268.39 V10.32 H258.06 Z M268.39,10.32 V20.65 H278.71 V10.32 H268.39 Z M278.71,10.32 V20.65 H289.03 V10.32 H278.71 Z M289.03,10.32 V20.65 H299.35 V10.32 H289.03 Z M299.35,10.32 V20.65 H309.68 V10.32 H299.35 Z M10.32,20.65 V30.97 H20.65 V20.65 H10.32 Z M72.26,20.65 V30.97 H82.58 V20.65 H72.26 Z M103.23,20.65 V30.97 H113.55 V20.65 H103.23 Z M165.16,20.65 V30.97 H175.48 V20.65 H165.16 Z M185.81,20.65 V30.97 H196.13 V20.65 H185.81 Z M196.13,20.65 V30.97 H206.45 V20.65 H196.13 Z M216.77,20.65 V30.97 H227.10 V20.65 H216.77 Z M237.42,20.65 V30.97 H247.74 V20.65 H237.42 Z M299.35,20.65 V30.97 H309.68 V20.65 H299.35 Z M10.32,30.97 V41.29 H20.65 V30.97 H10.32 Z M30.97,30.97 V41.29 H41.29 V30.97 H30.97 Z M41.29,30.97 V41.29 H51.61 V30.97 H41.29 Z M51.61,30.97 V41.29 H61.94 V30.97 H51.61 Z M72.26,30.97 V41.29 H82.58 V30.97 H72.26 Z M92.90,30.97 V41.29 H103.23 V30.97 H92.90 Z M103.23,30.97 V41.29 H113.55 V30.97 H103.23 Z M165.16,30.97 V41.29 H175.48 V30.97 H165.16 Z M175.48,30.97 V41.29 H185.81 V30.97 H175.48 Z M196.13,30.97 V41.29 H206.45 V30.97 H196.13 Z M206.45,30.97 V41.29 H216.77 V30.97 H206.45 Z M237.42,30.97 V41.29 H247.74 V30.97 H237.42 Z M258.06,30.97 V41.29 H268.39 V30.97 H258.06 Z M268.39,30.97 V41.29 H278.71 V30.97 H268.39 Z M278.71,30.97 V41.29 H289.03 V30.97 H278.71 Z M299.35,30.97 V41.29 H309.68 V30.97 H299.35 Z M10.32,41.29 V51.61 H20.65 V41.29 H10.32 Z M30.97,41.29 V51.61 H41.29 V41.29 H30.97 Z M41.29,41.29 V51.61 H51.61 V41.29 H41.29 Z M51.61,41.29 V51.61 H61.94 V41.29 H51.61 Z M72.26,41.29 V51.61 H82.58 V41.29 H72.26 Z M103.23,41.29 V51.61 H113.55 V41.29 H103.23 Z M113.55,41.29 V51.61 H123.87 V41.29 H113.55 Z M175.48,41.29 V51.61 H185.81 V41.29 H175.48 Z M185.81,41.29 V51.61 H196.13 V41.29 H185.81 Z M206.45,41.29 V51.61 H216.77 V41.29 H206.45 Z M216.77,41.29 V51.61 H227.10 V41.29 H216.77 Z M237.42,41.29 V51.61 H247.74 V41.29 H237.42 Z M258.06,41.29 V51.61 H268.39 V41.29 H258.06 Z M268.39,41.29 V51.61 H278.71 V41.29 H268.39 Z M278.71,41.29 V51.61 H289.03 V41.29 H278.71 Z M299.35,41.29 V51.61 H309.68 V41.29 H299.35 Z M10.32,51.61 V61.94 H20.65 V51.61 H10.32 Z M30.97,51.61 V61.94 H41.29 V51.61 H30.97 Z M41.29,51.61 V61.94 H51.61 V51.61 H41.29 Z M51.61,51.61 V61.94 H61.94 V51.61 H51.61 Z M72.26,51.61 V61.94 H82.58 V51.61 H72.26 Z M103.23,51.61 V61.94 H113.55 V51.61 H103.23 Z M134.19,51.61 V61.94 H144.52 V51.61 H134.19 Z M144.52,51.61 V61.94 H154.84 V51.61 H144.52 Z M154.84,51.61 V61.94 H165.16 V51.61 H154.84 Z M165.16,51.61 V61.94 H175.48 V51.61 H165.16 Z M206.45,51.61 V61.94 H216.77 V51.61 H206.45 Z M237.42,51.61 V61.94 H247.74 V51.61 H237.42 Z M258.06,51.61 V61.94 H268.39 V51.61 H258.06 Z M268.39,51.61 V61.94 H278.71 V51.61 H268.39 Z M278.71,51.61 V61.94 H289.03 V51.61 H278.71 Z M299.35,51.61 V61.94 H309.68 V51.61 H299.35 Z M10.32,61.94 V72.26 H20.65 V61.94 H10.32 Z M72.26,61.94 V72.26 H82.58 V61.94 H72.26 Z M113.55,61.94 V72.26 H123.87 V61.94 H113.55 Z M134.19,61.94 V72.26 H144.52 V61.94 H134.19 Z M154.84,61.94 V72.26 H165.16 V61.94 H154.84 Z M206.45,61.94 V72.26 H216.77 V61.94 H206.45 Z M216.77,61.94 V72.26 H227.10 V61.94 H216.77 Z M237.42,61.94 V72.26 H247.74 V61.94 H237.42 Z M299.35,61.94 V72.26 H309.68 V61.94 H299.35 Z M10.32,72.26 V82.58 H20.65 V72.26 H10.32 Z M20.65,72.26 V82.58 H30.97 V72.26 H20.65 Z M30.97,72.26 V82.58 H41.29 V72.26 H30.97 Z M41.29,72.26 V82.58 H51.61 V72.26 H41.29 Z M51.61,72.26 V82.58 H61.94 V72.26 H51.61 Z M61.94,72.26 V82.58 H72.26 V72.26 H61.94 Z M72.26,72.26 V82.58 H82.58 V72.26 H72.26 Z M92.90,72.26 V82.58 H103.23 V72.26 H92.90 Z M113.55,72.26 V82.58 H123.87 V72.26 H113.55 Z M134.19,72.26 V82.58 H144.52 V72.26 H134.19 Z M154.84,72.26 V82.58 H165.16 V72.26 H154.84 Z M175.48,72.26 V82.58 H185.81 V72.26 H175.48 Z M196.13,72.26 V82.58 H206.45 V72.26 H196.13 Z M216.77,72.26 V82.58 H227.10 V72.26 H216.77 Z M237.42,72.26 V82.58 H247.74 V72.26 H237.42 Z M247.74,72.26 V82.58 H258.06 V72.26 H247.74 Z M258.06,72.26 V82.58 H268.39 V72.26 H258.06 Z M268.39,72.26 V82.58 H278.71 V72.26 H268.39 Z M278.71,72.26 V82.58 H289.03 V72.26 H278.71 Z M289.03,72.26 V82.58 H299.35 V72.26 H289.03 Z M299.35,72.26 V82.58 H309.68 V72.26 H299.35 Z M92.90,82.58 V92.90 H103.23 V82.58 H92.90 Z M103.23,82.58 V92.90 H113.55 V82.58 H103.23 Z M113.55,82.58 V92.90 H123.87 V82.58 H113.55 Z M123.87,82.58 V92.90 H134.19 V82.58 H123.87 Z M144.52,82.58 V92.90 H154.84 V82.58 H144.52 Z M165.16,82.58 V92.90 H175.48 V82.58 H165.16 Z M175.48,82.58 V92.90 H185.81 V82.58 H175.48 Z M185.81,82.58 V92.90 H196.13 V82.58 H185.81 Z M196.13,82.58 V92.90 H206.45 V82.58 H196.13 Z M206.45,82.58 V92.90 H216.77 V82.58 H206.45 Z M216.77,82.58 V92.90 H227.10 V82.58 H216.77 Z M10.32,92.90 V103.23 H20.65 V92.90 H10.32 Z M30.97,92.90 V103.23 H41.29 V92.90 H30.97 Z M61.94,92.90 V103.23 H72.26 V92.90 H61.94 Z M72.26,92.90 V103.23 H82.58 V92.90 H72.26 Z M103.23,92.90 V103.23 H113.55 V92.90 H103.23 Z M154.84,92.90 V103.23 H165.16 V92.90 H154.84 Z M185.81,92.90 V103.23 H196.13 V92.90 H185.81 Z M206.45,92.90 V103.23 H216.77 V92.90 H206.45 Z M216.77,92.90 V103.23 H227.10 V92.90 H216.77 Z M227.10,92.90 V103.23 H237.42 V92.90 H227.10 Z M237.42,92.90 V103.23 H247.74 V92.90 H237.42 Z M278.71,92.90 V103.23 H289.03 V92.90 H278.71 Z M299.35,92.90 V103.23 H309.68 V92.90 H299.35 Z M10.32,103.23 V113.55 H20.65 V103.23 H10.32 Z M20.65,103.23 V113.55 H30.97 V103.23 H20.65 Z M41.29,103.23 V113.55 H51.61 V103.23 H41.29 Z M51.61,103.23 V113.55 H61.94 V103.23 H51.61 Z M61.94,103.23 V113.55 H72.26 V103.23 H61.94 Z M82.58,103.23 V113.55 H92.90 V103.23 H82.58 Z M92.90,103.23 V113.55 H103.23 V103.23 H92.90 Z M103.23,103.23 V113.55 H113.55 V103.23 H103.23 Z M113.55,103.23 V113.55 H123.87 V103.23 H113.55 Z M123.87,103.23 V113.55 H134.19 V103.23 H123.87 Z M165.16,103.23 V113.55 H175.48 V103.23 H165.16 Z M216.77,103.23 V113.55 H227.10 V103.23 H216.77 Z M227.10,103.23 V113.55 H237.42 V103.23 H227.10 Z M237.42,103.23 V113.55 H247.74 V103.23 H237.42 Z M289.03,103.23 V113.55 H299.35 V103.23 H289.03 Z M299.35,103.23 V113.55 H309.68 V103.23 H299.35 Z M51.61,113.55 V123.87 H61.94 V113.55 H51.61 Z M72.26,113.55 V123.87 H82.58 V113.55 H72.26 Z M82.58,113.55 V123.87 H92.90 V113.55 H82.58 Z M92.90,113.55 V123.87 H103.23 V113.55 H92.90 Z M103.23,113.55 V123.87 H113.55 V113.55 H103.23 Z M123.87,113.55 V123.87 H134.19 V113.55 H123.87 Z M144.52,113.55 V123.87 H154.84 V113.55 H144.52 Z M154.84,113.55 V123.87 H165.16 V113.55 H154.84 Z M175.48,113.55 V123.87 H185.81 V113.55 H175.48 Z M196.13,113.55 V123.87 H206.45 V113.55 H196.13 Z M227.10,113.55 V123.87 H237.42 V113.55 H227.10 Z M268.39,113.55 V123.87 H278.71 V113.55 H268.39 Z M278.71,113.55 V123.87 H289.03 V113.55 H278.71 Z M10.32,123.87 V134.19 H20.65 V123.87 H10.32 Z M20.65,123.87 V134.19 H30.97 V123.87 H20.65 Z M30.97,123.87 V134.19 H41.29 V123.87 H30.97 Z M41.29,123.87 V134.19 H51.61 V123.87 H41.29 Z M123.87,123.87 V134.19 H134.19 V123.87 H123.87 Z M144.52,123.87 V134.19 H154.84 V123.87 H144.52 Z M154.84,123.87 V134.19 H165.16 V123.87 H154.84 Z M175.48,123.87 V134.19 H185.81 V123.87 H175.48 Z M206.45,123.87 V134.19 H216.77 V123.87 H206.45 Z M216.77,123.87 V134.19 H227.10 V123.87 H216.77 Z M227.10,123.87 V134.19 H237.42 V123.87 H227.10 Z M237.42,123.87 V134.19 H247.74 V123.87 H237.42 Z M247.74,123.87 V134.19 H258.06 V123.87 H247.74 Z M258.06,123.87 V134.19 H268.39 V123.87 H258.06 Z M268.39,123.87 V134.19 H278.71 V123.87 H268.39 Z M299.35,123.87 V134.19 H309.68 V123.87 H299.35 Z M41.29,134.19 V144.52 H51.61 V134.19 H41.29 Z M51.61,134.19 V144.52 H61.94 V134.19 H51.61 Z M72.26,134.19 V144.52 H82.58 V134.19 H72.26 Z M103.23,134.19 V144.52 H113.55 V134.19 H103.23 Z M144.52,134.19 V144.52 H154.84 V134.19 H144.52 Z M165.16,134.19 V144.52 H175.48 V134.19 H165.16 Z M185.81,134.19 V144.52 H196.13 V134.19 H185.81 Z M196.13,134.19 V144.52 H206.45 V134.19 H196.13 Z M216.77,134.19 V144.52 H227.10 V134.19 H216.77 Z M227.10,134.19 V144.52 H237.42 V134.19 H227.10 Z M237.42,134.19 V144.52 H247.74 V134.19 H237.42 Z M278.71,134.19 V144.52 H289.03 V134.19 H278.71 Z M299.35,134.19 V144.52 H309.68 V134.19 H299.35 Z M10.32,144.52 V154.84 H20.65 V144.52 H10.32 Z M30.97,144.52 V154.84 H41.29 V144.52 H30.97 Z M61.94,144.52 V154.84 H72.26 V144.52 H61.94 Z M82.58,144.52 V154.84 H92.90 V144.52 H82.58 Z M92.90,144.52 V154.84 H103.23 V144.52 H92.90 Z M113.55,144.52 V154.84 H123.87 V144.52 H113.55 Z M134.19,144.52 V154.84 H144.52 V144.52 H134.19 Z M144.52,144.52 V154.84 H154.84 V144.52 H144.52 Z M165.16,144.52 V154.84 H175.48 V144.52 H165.16 Z M175.48,144.52 V154.84 H185.81 V144.52 H175.48 Z M196.13,144.52 V154.84 H206.45 V144.52 H196.13 Z M216.77,144.52 V154.84 H227.10 V144.52 H216.77 Z M227.10,144.52 V154.84 H237.42 V144.52 H227.10 Z M247.74,144.52 V154.84 H258.06 V144.52 H247.74 Z M258.06,144.52 V154.84 H268.39 V144.52 H258.06 Z M289.03,144.52 V154.84 H299.35 V144.52 H289.03 Z M10.32,154.84 V165.16 H20.65 V154.84 H10.32 Z M61.94,154.84 V165.16 H72.26 V154.84 H61.94 Z M72.26,154.84 V165.16 H82.58 V154.84 H72.26 Z M113.55,154.84 V165.16 H123.87 V154.84 H113.55 Z M123.87,154.84 V165.16 H134.19 V154.84 H123.87 Z M134.19,154.84 V165.16 H144.52 V154.84 H134.19 Z M144.52,154.84 V165.16 H154.84 V154.84 H144.52 Z M196.13,154.84 V165.16 H206.45 V154.84 H196.13 Z M206.45,154.84 V165.16 H216.77 V154.84 H206.45 Z M216.77,154.84 V165.16 H227.10 V154.84 H216.77 Z M227.10,154.84 V165.16 H237.42 V154.84 H227.10 Z M289.03,154.84 V165.16 H299.35 V154.84 H289.03 Z M299.35,154.84 V165.16 H309.68 V154.84 H299.35 Z M10.32,165.16 V175.48 H20.65 V165.16 H10.32 Z M20.65,165.16 V175.48 H30.97 V165.16 H20.65 Z M41.29,165.16 V175.48 H51.61 V165.16 H41.29 Z M51.61,165.16 V175.48 H61.94 V165.16 H51.61 Z M82.58,165.16 V175.48 H92.90 V165.16 H82.58 Z M103.23,165.16 V175.48 H113.55 V165.16 H103.23 Z M113.55,165.16 V175.48 H123.87 V165.16 H113.55 Z M123.87,165.16 V175.48 H134.19 V165.16 H123.87 Z M134.19,165.16 V175.48 H144.52 V165.16 H134.19 Z M144.52,165.16 V175.48 H154.84 V165.16 H144.52 Z M154.84,165.16 V175.48 H165.16 V165.16 H154.84 Z M165.16,165.16 V175.48 H175.48 V165.16 H165.16 Z M175.48,165.16 V175.48 H185.81 V165.16 H175.48 Z M185.81,165.16 V175.48 H196.13 V165.16 H185.81 Z M196.13,165.16 V175.48 H206.45 V165.16 H196.13 Z M206.45,165.16 V175.48 H216.77 V165.16 H206.45 Z M227.10,165.16 V175.48 H237.42 V165.16 H227.10 Z M237.42,165.16 V175.48 H247.74 V165.16 H237.42 Z M268.39,165.16 V175.48 H278.71 V165.16 H268.39 Z M278.71,165.16 V175.48 H289.03 V165.16 H278.71 Z M299.35,165.16 V175.48 H309.68 V165.16 H299.35 Z M51.61,175.48 V185.81 H61.94 V175.48 H51.61 Z M61.94,175.48 V185.81 H72.26 V175.48 H61.94 Z M72.26,175.48 V185.81 H82.58 V175.48 H72.26 Z M82.58,175.48 V185.81 H92.90 V175.48 H82.58 Z M92.90,175.48 V185.81 H103.23 V175.48 H92.90 Z M144.52,175.48 V185.81 H154.84 V175.48 H144.52 Z M165.16,175.48 V185.81 H175.48 V175.48 H165.16 Z M175.48,175.48 V185.81 H185.81 V175.48 H175.48 Z M185.81,175.48 V185.81 H196.13 V175.48 H185.81 Z M196.13,175.48 V185.81 H206.45 V175.48 H196.13 Z M206.45,175.48 V185.81 H216.77 V175.48 H206.45 Z M216.77,175.48 V185.81 H227.10 V175.48 H216.77 Z M227.10,175.48 V185.81 H237.42 V175.48 H227.10 Z M258.06,175.48 V185.81 H268.39 V175.48 H258.06 Z M268.39,175.48 V185.81 H278.71 V175.48 H268.39 Z M278.71,175.48 V185.81 H289.03 V175.48 H278.71 Z M289.03,175.48 V185.81 H299.35 V175.48 H289.03 Z M20.65,185.81 V196.13 H30.97 V185.81 H20.65 Z M30.97,185.81 V196.13 H41.29 V185.81 H30.97 Z M41.29,185.81 V196.13 H51.61 V185.81 H41.29 Z M51.61,185.81 V196.13 H61.94 V185.81 H51.61 Z M61.94,185.81 V196.13 H72.26 V185.81 H61.94 Z M103.23,185.81 V196.13 H113.55 V185.81 H103.23 Z M113.55,185.81 V196.13 H123.87 V185.81 H113.55 Z M144.52,185.81 V196.13 H154.84 V185.81 H144.52 Z M185.81,185.81 V196.13 H196.13 V185.81 H185.81 Z M196.13,185.81 V196.13 H206.45 V185.81 H196.13 Z M227.10,185.81 V196.13 H237.42 V185.81 H227.10 Z M237.42,185.81 V196.13 H247.74 V185.81 H237.42 Z M10.32,196.13 V206.45 H20.65 V196.13 H10.32 Z M20.65,196.13 V206.45 H30.97 V196.13 H20.65 Z M30.97,196.13 V206.45 H41.29 V196.13 H30.97 Z M41.29,196.13 V206.45 H51.61 V196.13 H41.29 Z M51.61,196.13 V206.45 H61.94 V196.13 H51.61 Z M72.26,196.13 V206.45 H82.58 V196.13 H72.26 Z M82.58,196.13 V206.45 H92.90 V196.13 H82.58 Z M103.23,196.13 V206.45 H113.55 V196.13 H103.23 Z M113.55,196.13 V206.45 H123.87 V196.13 H113.55 Z M123.87,196.13 V206.45 H134.19 V196.13 H123.87 Z M134.19,196.13 V206.45 H144.52 V196.13 H134.19 Z M165.16,196.13 V206.45 H175.48 V196.13 H165.16 Z M237.42,196.13 V206.45 H247.74 V196.13 H237.42 Z M247.74,196.13 V206.45 H258.06 V196.13 H247.74 Z M268.39,196.13 V206.45 H278.71 V196.13 H268.39 Z M278.71,196.13 V206.45 H289.03 V196.13 H278.71 Z M289.03,196.13 V206.45 H299.35 V196.13 H289.03 Z M30.97,206.45 V216.77 H41.29 V206.45 H30.97 Z M82.58,206.45 V216.77 H92.90 V206.45 H82.58 Z M92.90,206.45 V216.77 H103.23 V206.45 H92.90 Z M103.23,206.45 V216.77 H113.55 V206.45 H103.23 Z M113.55,206.45 V216.77 H123.87 V206.45 H113.55 Z M134.19,206.45 V216.77 H144.52 V206.45 H134.19 Z M144.52,206.45 V216.77 H154.84 V206.45 H144.52 Z M154.84,206.45 V216.77 H165.16 V206.45 H154.84 Z M165.16,206.45 V216.77 H175.48 V206.45 H165.16 Z M185.81,206.45 V216.77 H196.13 V206.45 H185.81 Z M196.13,206.45 V216.77 H206.45 V206.45 H196.13 Z M216.77,206.45 V216.77 H227.10 V206.45 H216.77 Z M247.74,206.45 V216.77 H258.06 V206.45 H247.74 Z M258.06,206.45 V216.77 H268.39 V206.45 H258.06 Z M268.39,206.45 V216.77 H278.71 V206.45 H268.39 Z M20.65,216.77 V227.10 H30.97 V216.77 H20.65 Z M61.94,216.77 V227.10 H72.26 V216.77 H61.94 Z M72.26,216.77 V227.10 H82.58 V216.77 H72.26 Z M82.58,216.77 V227.10 H92.90 V216.77 H82.58 Z M92.90,216.77 V227.10 H103.23 V216.77 H92.90 Z M103.23,216.77 V227.10 H113.55 V216.77 H103.23 Z M134.19,216.77 V227.10 H144.52 V216.77 H134.19 Z M144.52,216.77 V227.10 H154.84 V216.77 H144.52 Z M154.84,216.77 V227.10 H165.16 V216.77 H154.84 Z M165.16,216.77 V227.10 H175.48 V216.77 H165.16 Z M175.48,216.77 V227.10 H185.81 V216.77 H175.48 Z M206.45,216.77 V227.10 H216.77 V216.77 H206.45 Z M216.77,216.77 V227.10 H227.10 V216.77 H216.77 Z M227.10,216.77 V227.10 H237.42 V216.77 H227.10 Z M237.42,216.77 V227.10 H247.74 V216.77 H237.42 Z M247.74,216.77 V227.10 H258.06 V216.77 H247.74 Z M258.06,216.77 V227.10 H268.39 V216.77 H258.06 Z M289.03,216.77 V227.10 H299.35 V216.77 H289.03 Z M299.35,216.77 V227.10 H309.68 V216.77 H299.35 Z M123.87,227.10 V237.42 H134.19 V227.10 H123.87 Z M185.81,227.10 V237.42 H196.13 V227.10 H185.81 Z M196.13,227.10 V237.42 H206.45 V227.10 H196.13 Z M216.77,227.10 V237.42 H227.10 V227.10 H216.77 Z M258.06,227.10 V237.42 H268.39 V227.10 H258.06 Z M268.39,227.10 V237.42 H278.71 V227.10 H268.39 Z M278.71,227.10 V237.42 H289.03 V227.10 H278.71 Z M10.32,237.42 V247.74 H20.65 V237.42 H10.32 Z M20.65,237.42 V247.74 H30.97 V237.42 H20.65 Z M30.97,237.42 V247.74 H41.29 V237.42 H30.97 Z M41.29,237.42 V247.74 H51.61 V237.42 H41.29 Z M51.61,237.42 V247.74 H61.94 V237.42 H51.61 Z M61.94,237.42 V247.74 H72.26 V237.42 H61.94 Z M72.26,237.42 V247.74 H82.58 V237.42 H72.26 Z M103.23,237.42 V247.74 H113.55 V237.42 H103.23 Z M134.19,237.42 V247.74 H144.52 V237.42 H134.19 Z M144.52,237.42 V247.74 H154.84 V237.42 H144.52 Z M154.84,237.42 V247.74 H165.16 V237.42 H154.84 Z M165.16,237.42 V247.74 H175.48 V237.42 H165.16 Z M175.48,237.42 V247.74 H185.81 V237.42 H175.48 Z M185.81,237.42 V247.74 H196.13 V237.42 H185.81 Z M196.13,237.42 V247.74 H206.45 V237.42 H196.13 Z M206.45,237.42 V247.74 H216.77 V237.42 H206.45 Z M216.77,237.42 V247.74 H227.10 V237.42 H216.77 Z M237.42,237.42 V247.74 H247.74 V237.42 H237.42 Z M258.06,237.42 V247.74 H268.39 V237.42 H258.06 Z M299.35,237.42 V247.74 H309.68 V237.42 H299.35 Z M10.32,247.74 V258.06 H20.65 V247.74 H10.32 Z M72.26,247.74 V258.06 H82.58 V247.74 H72.26 Z M92.90,247.74 V258.06 H103.23 V247.74 H92.90 Z M113.55,247.74 V258.06 H123.87 V247.74 H113.55 Z M123.87,247.74 V258.06 H134.19 V247.74 H123.87 Z M144.52,247.74 V258.06 H154.84 V247.74 H144.52 Z M154.84,247.74 V258.06 H165.16 V247.74 H154.84 Z M185.81,247.74 V258.06 H196.13 V247.74 H185.81 Z M206.45,247.74 V258.06 H216.77 V247.74 H206.45 Z M216.77,247.74 V258.06 H227.10 V247.74 H216.77 Z M258.06,247.74 V258.06 H268.39 V247.74 H258.06 Z M10.32,258.06 V268.39 H20.65 V258.06 H10.32 Z M30.97,258.06 V268.39 H41.29 V258.06 H30.97 Z M41.29,258.06 V268.39 H51.61 V258.06 H41.29 Z M51.61,258.06 V268.39 H61.94 V258.06 H51.61 Z M72.26,258.06 V268.39 H82.58 V258.06 H72.26 Z M113.55,258.06 V268.39 H123.87 V258.06 H113.55 Z M154.84,258.06 V268.39 H165.16 V258.06 H154.84 Z M165.16,258.06 V268.39 H175.48 V258.06 H165.16 Z M196.13,258.06 V268.39 H206.45 V258.06 H196.13 Z M216.77,258.06 V268.39 H227.10 V258.06 H216.77 Z M227.10,258.06 V268.39 H237.42 V258.06 H227.10 Z M237.42,258.06 V268.39 H247.74 V258.06 H237.42 Z M247.74,258.06 V268.39 H258.06 V258.06 H247.74 Z M258.06,258.06 V268.39 H268.39 V258.06 H258.06 Z M268.39,258.06 V268.39 H278.71 V258.06 H268.39 Z M278.71,258.06 V268.39 H289.03 V258.06 H278.71 Z M289.03,258.06 V268.39 H299.35 V258.06 H289.03 Z M10.32,268.39 V278.71 H20.65 V268.39 H10.32 Z M30.97,268.39 V278.71 H41.29 V268.39 H30.97 Z M41.29,268.39 V278.71 H51.61 V268.39 H41.29 Z M51.61,268.39 V278.71 H61.94 V268.39 H51.61 Z M72.26,268.39 V278.71 H82.58 V268.39 H72.26 Z M113.55,268.39 V278.71 H123.87 V268.39 H113.55 Z M123.87,268.39 V278.71 H134.19 V268.39 H123.87 Z M196.13,268.39 V278.71 H206.45 V268.39 H196.13 Z M216.77,268.39 V278.71 H227.10 V268.39 H216.77 Z M227.10,268.39 V278.71 H237.42 V268.39 H227.10 Z M258.06,268.39 V278.71 H268.39 V268.39 H258.06 Z M268.39,268.39 V278.71 H278.71 V268.39 H268.39 Z M289.03,268.39 V278.71 H299.35 V268.39 H289.03 Z M299.35,268.39 V278.71 H309.68 V268.39 H299.35 Z M10.32,278.71 V289.03 H20.65 V278.71 H10.32 Z M30.97,278.71 V289.03 H41.29 V278.71 H30.97 Z M41.29,278.71 V289.03 H51.61 V278.71 H41.29 Z M51.61,278.71 V289.03 H61.94 V278.71 H51.61 Z M72.26,278.71 V289.03 H82.58 V278.71 H72.26 Z M92.90,278.71 V289.03 H103.23 V278.71 H92.90 Z M113.55,278.71 V289.03 H123.87 V278.71 H113.55 Z M185.81,278.71 V289.03 H196.13 V278.71 H185.81 Z M227.10,278.71 V289.03 H237.42 V278.71 H227.10 Z M268.39,278.71 V289.03 H278.71 V278.71 H268.39 Z M10.32,289.03 V299.35 H20.65 V289.03 H10.32 Z M72.26,289.03 V299.35 H82.58 V289.03 H72.26 Z M103.23,289.03 V299.35 H113.55 V289.03 H103.23 Z M144.52,289.03 V299.35 H154.84 V289.03 H144.52 Z M185.81,289.03 V299.35 H196.13 V289.03 H185.81 Z M216.77,289.03 V299.35 H227.10 V289.03 H216.77 Z M247.74,289.03 V299.35 H258.06 V289.03 H247.74 Z M258.06,289.03 V299.35 H268.39 V289.03 H258.06 Z M278.71,289.03 V299.35 H289.03 V289.03 H278.71 Z M10.32,299.35 V309.68 H20.65 V299.35 H10.32 Z M20.65,299.35 V309.68 H30.97 V299.35 H20.65 Z M30.97,299.35 V309.68 H41.29 V299.35 H30.97 Z M41.29,299.35 V309.68 H51.61 V299.35 H41.29 Z M51.61,299.35 V309.68 H61.94 V299.35 H51.61 Z M61.94,299.35 V309.68 H72.26 V299.35 H61.94 Z M72.26,299.35 V309.68 H82.58 V299.35 H72.26 Z M92.90,299.35 V309.68 H103.23 V299.35 H92.90 Z M103.23,299.35 V309.68 H113.55 V299.35 H103.23 Z M113.55,299.35 V309.68 H123.87 V299.35 H113.55 Z M134.19,299.35 V309.68 H144.52 V299.35 H134.19 Z M144.52,299.35 V309.68 H154.84 V299.35 H144.52 Z M154.84,299.35 V309.68 H165.16 V299.35 H154.84 Z M175.48,299.35 V309.68 H185.81 V299.35 H175.48 Z M185.81,299.35 V309.68 H196.13 V299.35 H185.81 Z M196.13,299.35 V309.68 H206.45 V299.35 H196.13 Z M227.10,299.35 V309.68 H237.42 V299.35 H227.10 Z M237.42,299.35 V309.68 H247.74 V299.35 H237.42 Z M247.74,299.35 V309.68 H258.06 V299.35 H247.74 Z M258.06,299.35 V309.68 H268.39 V299.35 H258.06 Z M268.39,299.35 V309.68 H278.71 V299.35 H268.39 Z M278.71,299.35 V309.68 H289.03 V299.35 H278.71 Z M299.35,299.35 V309.68 H309.68 V299.35 H299.35 Z " /></svg>