<?xml version="1.0" encoding="UTF-8" standalone="no"?>
<!-- Created with Inkscape (http://www.inkscape.org/) -->

<svg
   xmlns:dc="http://purl.org/dc/elements/1.1/"
   xmlns:cc="http://creativecommons.org/ns#"
   xmlns:rdf="http://www.w3.org/1999/02/22-rdf-syntax-ns#"
   xmlns:svg="http://www.w3.org/2000/svg"
   xmlns="http://www.w3.org/2000/svg"
   xmlns:sodipodi="http://sodipodi.sourceforge.net/DTD/sodipodi-0.dtd"
   xmlns:inkscape="http://www.inkscape.org/namespaces/inkscape"
   width="828.37909"
   height="616.45837"
   id="svg2"
   version="1.1"
   inkscape:version="0.48.4 r9939"
   sodipodi:docname="New document 1">
  <defs
     id="defs4" />
  <sodipodi:namedview
     id="base"
     pagecolor="#ffffff"
     bordercolor="#666666"
     borderopacity="1.0"
     inkscape:pageopacity="0.0"
     inkscape:pageshadow="2"
     inkscape:zoom="0.35"
     inkscape:cx="446.6446"
     inkscape:cy="129.80012"
     inkscape:document-units="px"
     inkscape:current-layer="layer1"
     showgrid="false"
     fit-margin-top="0"
     fit-margin-left="0"
     fit-margin-right="0"
     fit-margin-bottom="0"
     inkscape:window-width="1366"
     inkscape:window-height="706"
     inkscape:window-x="-8"
     inkscape:window-y="-8"
     inkscape:window-maximized="1" />
  <metadata
     id="metadata7">
    <rdf:RDF>
      <cc:Work
         rdf:about="">
        <dc:format>image/svg+xml</dc:format>
        <dc:type
           rdf:resource="http://purl.org/dc/dcmitype/StillImage" />
        <dc:title></dc:title>
      </cc:Work>
    </rdf:RDF>
  </metadata>
  <g
     inkscape:label="Layer 1"
     inkscape:groupmode="layer"
     id="layer1"
     transform="translate(80.38978,205.39855)">
    <g
       id="g10"
       transform="matrix(4.7134459,0,0,-4.7134459,-120.4725,557.65178)">
      <g
         id="g12"
         transform="scale(0.1,0.1)">
        <path
           d="m 1707.57,1618.88 -1622.5153,0 -0.0156,-965.474 146.1129,0 0,-342.398 341.852,341.844 1134.566,0 c 84.49,0 134.95,50.445 134.95,134.941 l 0,696.137 c 0,84.49 -50.46,134.95 -134.95,134.95"
           style="fill:#000000;fill-opacity:1;fill-rule:nonzero;stroke:none"
           id="path16"
           inkscape:connector-curvature="0" />
        <path
           d="m 468.574,1158.79 c 36.66,13.1 57.602,41.03 57.602,96 l 0,87.28 c 0,79.41 -42.766,118.68 -130.031,118.68 l -164.082,0 0,-628.367 165.824,0 c 87.277,0 130.914,39.277 130.914,119.574 l 0,124.793 c 0,46.25 -18.336,71.56 -60.227,82.04 l 0,0 z m -121.304,199.86 38.398,0 c 16.582,0 24.437,-7.86 24.437,-24.44 l 0,-108.21 c 0,-16.59 -7.855,-24.45 -24.437,-24.45 l -38.398,0 0,157.1 z m 64.585,-399.716 c 0,-16.575 -7.855,-24.438 -24.445,-24.438 l -40.14,0 0,170.174 40.14,0 c 16.59,0 24.445,-7.84 24.445,-24.42 l 0,-121.316"
           style="fill:#4dc5e1;fill-opacity:1;fill-rule:nonzero;stroke:none"
           id="path18"
           inkscape:connector-curvature="0" />
        <path
           d="m 685.02,1302.79 0,53.25 -110.836,0 0,-523.657 115.195,0 0,377.027 c 17.453,15.71 41.891,26.18 82.039,26.18 l 0,124.81 c -45.383,2.61 -65.457,-20.08 -86.398,-57.61"
           style="fill:#4dc5e1;fill-opacity:1;fill-rule:nonzero;stroke:none"
           id="path20"
           inkscape:connector-curvature="0" />
        <path
           d="m 954.688,1363.01 -27.93,0 c -82.035,0 -122.188,-36.65 -122.188,-111.71 l 0,-71.56 106.481,0 0,67.2 c 0,12.22 5.238,17.45 17.453,17.45 l 17.453,0 c 12.223,0 17.457,-5.23 17.457,-17.45 l 0,-85.53 -103.851,-44.5 c -43.637,-18.34 -61.973,-44.52 -61.973,-98.62 l 0,-104.735 c 0,-57.614 31.43,-86.407 80.297,-86.407 l 1.746,0 c 36.656,0 68.066,20.079 86.398,43.641 l 0,-38.406 110.839,0 0,418.917 c 0,75.06 -40.15,111.71 -122.182,111.71 l 0,0 z m 8.726,-427.627 c -9.601,-5.246 -18.324,-8.738 -29.672,-8.738 -18.328,0 -26.183,6.976 -26.183,25.312 l 0,57.603 c 0,20.06 3.492,29.66 20.945,38.39 l 34.91,18.33 0,-130.897"
           style="fill:#4dc5e1;fill-opacity:1;fill-rule:nonzero;stroke:none"
           id="path22"
           inkscape:connector-curvature="0" />
        <path
           d="m 1587.43,1363.01 -31.43,0 c -84.64,0 -127.43,-38.4 -127.43,-116.94 l 0,-303.711 c 0,-78.562 42.79,-116.957 127.43,-116.957 l 31.43,0 c 84.64,0 127.41,38.395 127.41,116.957 l 0,303.711 c 0,78.54 -42.77,116.94 -127.41,116.94 l 0,0 z m 12.2,-415.412 c 0,-13.102 -6.11,-19.207 -19.19,-19.207 l -17.46,0 c -13.1,0 -19.19,6.105 -19.19,19.207 l 0,293.242 c 0,13.07 6.09,19.18 19.19,19.18 l 17.46,0 c 13.08,0 19.19,-6.11 19.19,-19.18 l 0,-293.242"
           style="fill:#4dc5e1;fill-opacity:1;fill-rule:nonzero;stroke:none"
           id="path24"
           inkscape:connector-curvature="0" />
        <path
           d="m 1256.66,999.953 -42.76,356.087 -114.33,0 79.41,-523.657 148.35,0 79.44,523.657 -107.35,0 -42.76,-356.087"
           style="fill:#4dc5e1;fill-opacity:1;fill-rule:nonzero;stroke:none"
           id="path26"
           inkscape:connector-curvature="0" />
      </g>
    </g>
  </g>
</svg>
